<svg xmlns="http://www.w3.org/2000/svg" viewBox="0 0 24 24" id="browser"><g data-name="Layer 2"><path fill="none" d="M0 0h24v24H0z"></path><path fill="#5e59e2" d="M1 12C1 4 4 1 12 1s11 3 11 11-3 11-11 11S1 20 1 12"></path><path fill="#4641c9" d="M14.94 15.33h-.57a4.14 4.14 0 0 1-6.31-1.77A10 10 0 0 1 7 12.89a5 5 0 0 0 8.59 2.42c-.2.02-.42.02-.65.02Z"></path><path fill="#fff" d="M16.85 11.57a5 5 0 0 0-9-2.37c-1.31.26-1.71.8-1.85 1.22s0 1.14 1 2a12.3 12.3 0 0 0 4.3 2 14 14 0 0 0 3.54.52 7.51 7.51 0 0 0 .84 0c1.59-.16 2.07-.78 2.19-1.26s.13-1.23-1.02-2.11Zm-10-.94a.68.68 0 0 1 .42-.39 4.33 4.33 0 0 0-.25.92.65.65 0 0 1-.18-.53Zm4.76 3a11.78 11.78 0 0 1-3.83-1.7 4.07 4.07 0 0 1 .57-2v-.06a4.13 4.13 0 0 1 7.65 2 1.21 1.21 0 0 1 0 .13 4 4 0 0 1-.56 2.07 12.19 12.19 0 0 1-3.84-.47Zm5.56-.18c0 .16-.24.34-.67.48a5.2 5.2 0 0 0 .33-1.23c.29.3.37.56.33.72Z"></path></g></svg>